<svg width="44" height="50" viewBox="0 0 44 50" fill="none" xmlns="http://www.w3.org/2000/svg">
<path d="M0.880682 47V39.7273H3.33807C3.90625 39.7273 4.37263 39.8243 4.73722 40.0185C5.1018 40.2102 5.37169 40.4742 5.54688 40.8104C5.72206 41.1465 5.80966 41.5289 5.80966 41.9574C5.80966 42.3859 5.72206 42.7659 5.54688 43.0973C5.37169 43.4287 5.10298 43.6892 4.74077 43.8786C4.37855 44.0656 3.91572 44.1591 3.35227 44.1591H1.36364V43.3636H3.32386C3.71212 43.3636 4.02462 43.3068 4.26136 43.1932C4.50047 43.0795 4.6733 42.9186 4.77983 42.7102C4.88873 42.4995 4.94318 42.2486 4.94318 41.9574C4.94318 41.6662 4.88873 41.4117 4.77983 41.1939C4.67093 40.9761 4.49692 40.808 4.25781 40.6896C4.0187 40.5689 3.70265 40.5085 3.30966 40.5085H1.76136V47H0.880682ZM4.30398 43.733L6.09375 47H5.07102L3.30966 43.733H4.30398ZM9.39187 47.1136C8.8663 47.1136 8.41294 46.9976 8.03178 46.7656C7.65299 46.5312 7.36062 46.2045 7.15465 45.7855C6.95105 45.3641 6.84925 44.8741 6.84925 44.3153C6.84925 43.7566 6.95105 43.2642 7.15465 42.8381C7.36062 42.4096 7.64708 42.0758 8.01403 41.8366C8.38335 41.5952 8.81422 41.4744 9.30664 41.4744C9.59073 41.4744 9.87127 41.5218 10.1483 41.6165C10.4252 41.7112 10.6774 41.8651 10.9047 42.0781C11.1319 42.2888 11.313 42.5682 11.448 42.9162C11.5829 43.2642 11.6504 43.6927 11.6504 44.2017V44.5568H7.44585V43.8324H10.7981C10.7981 43.5246 10.7366 43.25 10.6135 43.0085C10.4927 42.767 10.3199 42.5765 10.095 42.4368C9.87246 42.2971 9.60967 42.2273 9.30664 42.2273C8.97283 42.2273 8.68401 42.3101 8.44016 42.4759C8.19869 42.6392 8.01284 42.8523 7.88263 43.1151C7.75243 43.3778 7.68732 43.6596 7.68732 43.9602V44.4432C7.68732 44.8551 7.75835 45.2043 7.90039 45.4908C8.0448 45.7749 8.24485 45.9915 8.50053 46.1406C8.75621 46.2874 9.05333 46.3608 9.39187 46.3608C9.61204 46.3608 9.8109 46.33 9.98846 46.2685C10.1684 46.2045 10.3234 46.1098 10.4537 45.9844C10.5839 45.8565 10.6845 45.6979 10.7555 45.5085L11.5652 45.7358C11.4799 46.0104 11.3367 46.2519 11.1355 46.4602C10.9342 46.6662 10.6857 46.8272 10.3897 46.9432C10.0938 47.0568 9.76119 47.1136 9.39187 47.1136ZM16.6468 49.0455V46.1619H16.5758C16.5143 46.2614 16.4267 46.3868 16.313 46.5384C16.1994 46.6875 16.0372 46.8213 15.8265 46.9396C15.6158 47.0556 15.3353 47.1136 14.9849 47.1136C14.5304 47.1136 14.1291 46.9988 13.7811 46.7692C13.4331 46.5372 13.1608 46.2105 12.9643 45.7891C12.7678 45.3653 12.6696 44.8646 12.6696 44.2869C12.6696 43.714 12.7678 43.2169 12.9643 42.7955C13.1608 42.3741 13.4342 42.0485 13.7846 41.8189C14.135 41.5893 14.5398 41.4744 14.9991 41.4744C15.3542 41.4744 15.6348 41.5336 15.8407 41.652C16.0491 41.768 16.2077 41.9006 16.3166 42.0497C16.4279 42.1965 16.5143 42.3172 16.5758 42.4119H16.6752V41.5455H17.4849V49.0455H16.6468ZM15.0985 46.3608C15.4347 46.3608 15.7188 46.2732 15.9508 46.098C16.1828 45.9205 16.3592 45.6754 16.4799 45.3629C16.6007 45.0481 16.661 44.6847 16.661 44.2727C16.661 43.8655 16.6019 43.5092 16.4835 43.2038C16.3651 42.8961 16.1899 42.657 15.9579 42.4865C15.7259 42.3137 15.4395 42.2273 15.0985 42.2273C14.7434 42.2273 14.4475 42.3184 14.2108 42.5007C13.9764 42.6806 13.8 42.9257 13.6816 43.2358C13.5656 43.5436 13.5076 43.8892 13.5076 44.2727C13.5076 44.661 13.5668 45.0137 13.6852 45.331C13.8059 45.6458 13.9835 45.8968 14.2179 46.0838C14.4546 46.2685 14.7482 46.3608 15.0985 46.3608ZM22.4565 44.7699V41.5455H23.2946V47H22.4565V46.0767H22.3997C22.2718 46.3537 22.073 46.5893 21.8031 46.7834C21.5332 46.9751 21.1923 47.071 20.7804 47.071C20.4395 47.071 20.1364 46.9964 19.8713 46.8473C19.6061 46.6958 19.3978 46.4685 19.2463 46.1655C19.0948 45.8601 19.019 45.4754 19.019 45.0114V41.5455H19.8571V44.9545C19.8571 45.3523 19.9683 45.6695 20.1909 45.9062C20.4158 46.143 20.7022 46.2614 21.0502 46.2614C21.2586 46.2614 21.4705 46.2081 21.6859 46.1016C21.9037 45.995 22.086 45.8317 22.2328 45.6115C22.3819 45.3913 22.4565 45.1108 22.4565 44.7699ZM27.1165 47.1136C26.5909 47.1136 26.1375 46.9976 25.7564 46.7656C25.3776 46.5312 25.0852 46.2045 24.8793 45.7855C24.6757 45.3641 24.5739 44.8741 24.5739 44.3153C24.5739 43.7566 24.6757 43.2642 24.8793 42.8381C25.0852 42.4096 25.3717 42.0758 25.7386 41.8366C26.108 41.5952 26.5388 41.4744 27.0312 41.4744C27.3153 41.4744 27.5959 41.5218 27.8729 41.6165C28.1499 41.7112 28.402 41.8651 28.6293 42.0781C28.8565 42.2888 29.0376 42.5682 29.1726 42.9162C29.3075 43.2642 29.375 43.6927 29.375 44.2017V44.5568H25.1705V43.8324H28.5227C28.5227 43.5246 28.4612 43.25 28.3381 43.0085C28.2173 42.767 28.0445 42.5765 27.8196 42.4368C27.5971 42.2971 27.3343 42.2273 27.0312 42.2273C26.6974 42.2273 26.4086 42.3101 26.1648 42.4759C25.9233 42.6392 25.7375 42.8523 25.6072 43.1151C25.477 43.3778 25.4119 43.6596 25.4119 43.9602V44.4432C25.4119 44.8551 25.483 45.2043 25.625 45.4908C25.7694 45.7749 25.9695 45.9915 26.2251 46.1406C26.4808 46.2874 26.7779 46.3608 27.1165 46.3608C27.3366 46.3608 27.5355 46.33 27.7131 46.2685C27.893 46.2045 28.0481 46.1098 28.1783 45.9844C28.3085 45.8565 28.4091 45.6979 28.4801 45.5085L29.2898 45.7358C29.2045 46.0104 29.0613 46.2519 28.8601 46.4602C28.6589 46.6662 28.4103 46.8272 28.1143 46.9432C27.8184 47.0568 27.4858 47.1136 27.1165 47.1136ZM34.5135 42.767L33.7607 42.9801C33.7133 42.8546 33.6435 42.7327 33.5511 42.6143C33.4612 42.4936 33.3381 42.3942 33.1818 42.3161C33.0256 42.2379 32.8255 42.1989 32.5817 42.1989C32.2479 42.1989 31.9697 42.2758 31.7472 42.4297C31.527 42.5812 31.4169 42.7741 31.4169 43.0085C31.4169 43.2169 31.4927 43.3814 31.6442 43.5021C31.7957 43.6229 32.0324 43.7235 32.3544 43.804L33.1641 44.0028C33.6518 44.1212 34.0152 44.3023 34.2543 44.5462C34.4934 44.7876 34.6129 45.099 34.6129 45.4801C34.6129 45.7926 34.523 46.072 34.343 46.3182C34.1655 46.5644 33.9169 46.7585 33.5973 46.9006C33.2777 47.0426 32.906 47.1136 32.4822 47.1136C31.9259 47.1136 31.4654 46.9929 31.1009 46.7514C30.7363 46.5099 30.5054 46.1572 30.4084 45.6932L31.2038 45.4943C31.2796 45.7879 31.4228 46.008 31.6335 46.1548C31.8466 46.3016 32.1248 46.375 32.468 46.375C32.8587 46.375 33.1688 46.2921 33.3984 46.1264C33.6304 45.9583 33.7464 45.7571 33.7464 45.5227C33.7464 45.3333 33.6802 45.1747 33.5476 45.0469C33.415 44.9167 33.2114 44.8196 32.9368 44.7557L32.0277 44.5426C31.5282 44.4242 31.1612 44.2408 30.9268 43.9922C30.6948 43.7412 30.5788 43.4276 30.5788 43.0511C30.5788 42.7434 30.6652 42.4711 30.8381 42.2344C31.0133 41.9976 31.2512 41.8118 31.5518 41.6768C31.8549 41.5419 32.1982 41.4744 32.5817 41.4744C33.1214 41.4744 33.5452 41.5928 33.853 41.8295C34.1631 42.0663 34.3833 42.3788 34.5135 42.767ZM38.2466 41.5455V42.2557H35.4199V41.5455H38.2466ZM36.2438 40.2386H37.0819V45.4375C37.0819 45.6742 37.1162 45.8518 37.1848 45.9702C37.2559 46.0862 37.3458 46.1643 37.4547 46.2045C37.566 46.2424 37.6832 46.2614 37.8063 46.2614C37.8986 46.2614 37.9744 46.2566 38.0336 46.2472C38.0927 46.2353 38.1401 46.2259 38.1756 46.2188L38.3461 46.9716C38.2892 46.9929 38.2099 47.0142 38.1081 47.0355C38.0063 47.0592 37.8773 47.071 37.7211 47.071C37.4843 47.071 37.2523 47.0201 37.025 46.9183C36.8001 46.8165 36.6131 46.6615 36.464 46.4531C36.3172 46.2448 36.2438 45.982 36.2438 45.6648V40.2386ZM43.2733 42.767L42.5204 42.9801C42.4731 42.8546 42.4032 42.7327 42.3109 42.6143C42.2209 42.4936 42.0978 42.3942 41.9416 42.3161C41.7853 42.2379 41.5853 42.1989 41.3414 42.1989C41.0076 42.1989 40.7295 42.2758 40.5069 42.4297C40.2868 42.5812 40.1767 42.7741 40.1767 43.0085C40.1767 43.2169 40.2524 43.3814 40.4039 43.5021C40.5555 43.6229 40.7922 43.7235 41.1142 43.804L41.9238 44.0028C42.4115 44.1212 42.7749 44.3023 43.014 44.5462C43.2531 44.7876 43.3727 45.099 43.3727 45.4801C43.3727 45.7926 43.2827 46.072 43.1028 46.3182C42.9252 46.5644 42.6767 46.7585 42.3571 46.9006C42.0375 47.0426 41.6658 47.1136 41.242 47.1136C40.6857 47.1136 40.2252 46.9929 39.8606 46.7514C39.496 46.5099 39.2652 46.1572 39.1681 45.6932L39.9636 45.4943C40.0394 45.7879 40.1826 46.008 40.3933 46.1548C40.6064 46.3016 40.8845 46.375 41.2278 46.375C41.6184 46.375 41.9286 46.2921 42.1582 46.1264C42.3902 45.9583 42.5062 45.7571 42.5062 45.5227C42.5062 45.3333 42.4399 45.1747 42.3074 45.0469C42.1748 44.9167 41.9712 44.8196 41.6966 44.7557L40.7875 44.5426C40.2879 44.4242 39.921 44.2408 39.6866 43.9922C39.4546 43.7412 39.3386 43.4276 39.3386 43.0511C39.3386 42.7434 39.425 42.4711 39.5978 42.2344C39.773 41.9976 40.0109 41.8118 40.3116 41.6768C40.6146 41.5419 40.9579 41.4744 41.3414 41.4744C41.8812 41.4744 42.305 41.5928 42.6127 41.8295C42.9229 42.0663 43.1431 42.3788 43.2733 42.767Z" fill="black"/>
<path d="M33.6667 0H10.3335C9.71454 0 9.12101 0.245693 8.68358 0.683339C8.24591 1.121 8 1.71431 8 2.33326V20.9999C8 21.6188 8.24592 22.2123 8.68358 22.6498C9.12101 23.0874 9.71454 23.3334 10.3335 23.3334H33.6667C34.2855 23.3334 34.879 23.0874 35.3167 22.6498C35.7541 22.2123 36 21.6188 36 20.9999V2.33326C36 1.71431 35.7541 1.12102 35.3167 0.683339C34.879 0.245675 34.2855 0 33.6667 0ZM20.5999 2.33326C20.8474 2.33326 21.0848 2.43145 21.2599 2.60652C21.4349 2.78159 21.5331 3.01894 21.5331 3.2665C21.5331 3.51406 21.4349 3.7514 21.2599 3.92648C21.0848 4.10156 20.8474 4.19997 20.5999 4.19997C20.3523 4.19997 20.115 4.10154 19.9399 3.92648C19.7648 3.75142 19.6664 3.51406 19.6664 3.2665C19.6664 3.01894 19.7648 2.78159 19.9399 2.60652C20.115 2.43144 20.3523 2.33326 20.5999 2.33326ZM16.3999 2.33326C16.6475 2.33326 16.8848 2.43145 17.0599 2.60652C17.235 2.78159 17.3331 3.01894 17.3331 3.2665C17.3331 3.51406 17.235 3.7514 17.0599 3.92648C16.8848 4.10156 16.6475 4.19997 16.3999 4.19997C16.1524 4.19997 15.915 4.10154 15.7399 3.92648C15.5648 3.75142 15.4664 3.51406 15.4664 3.2665C15.4664 3.01894 15.5649 2.78159 15.7399 2.60652C15.915 2.43144 16.1523 2.33326 16.3999 2.33326ZM12.1999 2.33326C12.4475 2.33326 12.6848 2.43145 12.8599 2.60652C13.0347 2.78158 13.1332 3.01894 13.1332 3.2665C13.1332 3.51406 13.0347 3.7514 12.8599 3.92648C12.6848 4.10154 12.4475 4.19997 12.1999 4.19997C11.9524 4.19997 11.715 4.10154 11.5399 3.92648C11.3649 3.75142 11.2665 3.51406 11.2665 3.2665C11.2665 3.01894 11.3649 2.78159 11.5399 2.60652C11.715 2.43145 11.9524 2.33326 12.1999 2.33326ZM35.0666 20.9999C35.0666 21.3713 34.9191 21.7274 34.6567 21.9898C34.3941 22.2524 34.038 22.3999 33.6668 22.3999H10.3336C9.96212 22.3999 9.60599 22.2524 9.34361 21.9898C9.08101 21.7274 8.9335 21.3713 8.9335 20.9999V6.06682H35.0666L35.0666 20.9999Z" fill="black"/>
<path d="M27.6698 12.3058C27.5784 12.0649 27.3088 11.9438 27.0678 12.0353C26.8267 12.1268 26.7056 12.3963 26.7971 12.6371C27.3989 14.2153 27.1861 15.9884 26.2279 17.3789C25.2697 18.7697 23.6887 19.6002 21.9999 19.5999C20.1659 19.5999 18.4713 18.6215 17.5543 17.0332C16.6372 15.4449 16.6372 13.4881 17.5543 11.8998C18.4713 10.3117 20.1659 9.33306 21.9999 9.33306C23.0093 9.33051 23.9968 9.62785 24.8371 10.1871L24.0345 10.3038C23.9108 10.313 23.7957 10.3712 23.7147 10.4652C23.6339 10.5594 23.5936 10.6817 23.6028 10.8056C23.622 11.0631 23.8467 11.2565 24.1044 11.2372L26.0176 10.9619H26.0178C26.1403 10.9434 26.2506 10.8769 26.3242 10.7771C26.3976 10.6773 26.4286 10.5523 26.4099 10.4298L26.1392 8.5631C26.1017 8.30536 25.8624 8.12682 25.6047 8.1641C25.347 8.20162 25.1684 8.44083 25.2057 8.69856L25.3037 9.36595L25.3039 9.36572C24.1349 8.60431 22.7395 8.26878 21.3522 8.41585C19.9651 8.5629 18.6709 9.18349 17.6879 10.1733C16.5467 11.3126 15.9059 12.8592 15.9074 14.4719C15.9087 16.0843 16.552 17.63 17.6953 18.7672C18.8383 19.9047 20.3873 20.5401 21.9999 20.5332C23.9956 20.5337 25.8639 19.5525 26.9962 17.909C28.1288 16.2658 28.3806 14.1708 27.6698 12.3058Z" fill="black"/>
</svg>
